<?xml version="1.0" standalone="no"?>
<!DOCTYPE svg PUBLIC "-//W3C//DTD SVG 20010904//EN"
 "http://www.w3.org/TR/2001/REC-SVG-20010904/DTD/svg10.dtd">
<svg version="1.0" xmlns="http://www.w3.org/2000/svg"
 width="128.000000pt" height="128.000000pt" viewBox="0 0 128.000000 128.000000"
 preserveAspectRatio="xMidYMid meet">

<g transform="translate(0.000000,128.000000) scale(0.100000,-0.100000)"
fill="#000000" stroke="none">
<path d="M640 1090 c0 -5 -13 -10 -30 -10 -16 0 -30 -4 -30 -10 0 -5 -13 -10
-30 -10 -16 0 -30 -4 -30 -10 0 -5 -8 -10 -18 -10 -10 0 -24 -9 -32 -20 -8
-11 -20 -20 -28 -20 -17 0 -42 -25 -42 -42 0 -8 -9 -20 -20 -28 -12 -8 -20
-26 -20 -42 0 -15 -4 -28 -10 -28 -5 0 -10 -13 -10 -30 0 -16 5 -30 10 -30 6
0 10 -12 10 -26 0 -17 -14 -39 -40 -64 -32 -31 -40 -46 -40 -74 l0 -36 50 0
c28 0 50 -3 50 -6 0 -3 -18 -23 -40 -44 -22 -21 -40 -46 -40 -54 0 -9 -4 -16
-10 -16 -5 0 -10 -18 -10 -40 0 -22 -4 -40 -10 -40 -15 0 -12 -49 4 -66 8 -8
33 -14 56 -14 43 0 70 17 70 44 0 11 9 16 30 16 17 0 30 -4 30 -10 0 -5 18
-10 40 -10 22 0 40 -4 40 -10 0 -5 12 -10 26 -10 38 0 54 -22 54 -74 0 -39 3
-46 20 -46 11 0 20 -4 20 -10 0 -15 49 -12 66 4 8 8 14 21 14 28 0 8 9 20 20
28 14 10 20 26 20 52 0 21 5 38 10 38 6 0 10 18 10 40 0 22 5 40 10 40 6 0 10
12 10 26 0 39 22 54 80 54 41 0 56 5 75 25 14 13 25 29 25 35 0 16 -47 60 -65
60 -21 0 -19 13 5 30 11 8 20 22 20 32 0 10 5 18 10 18 6 0 10 9 10 20 0 11 5
20 10 20 6 0 10 23 10 50 0 28 -4 50 -10 50 -5 0 -10 14 -10 30 0 17 -4 30
-10 30 -5 0 -10 9 -10 20 0 11 -4 20 -10 20 -5 0 -10 7 -10 15 0 9 -20 36 -45
60 -36 36 -51 45 -80 45 -19 0 -35 5 -35 10 0 6 -30 10 -70 10 -40 0 -70 -4
-70 -10z m120 -20 c0 -5 14 -10 30 -10 17 0 30 -4 30 -10 0 -5 7 -10 15 -10 9
0 31 -16 50 -35 19 -19 35 -41 35 -50 0 -8 5 -15 10 -15 6 0 10 -9 10 -20 0
-11 5 -20 10 -20 6 0 10 -9 10 -20 0 -11 5 -20 10 -20 6 0 10 -18 10 -40 0
-22 -4 -40 -10 -40 -5 0 -10 -12 -10 -26 0 -16 -12 -37 -30 -54 -33 -31 -42
-80 -14 -80 18 0 44 -23 44 -40 0 -26 -30 -40 -84 -40 -49 0 -56 -2 -56 -20 0
-11 -4 -20 -10 -20 -5 0 -10 -9 -10 -20 0 -11 -4 -20 -10 -20 -5 0 -10 -18
-10 -40 0 -22 -4 -40 -10 -40 -5 0 -10 -18 -10 -40 0 -22 -4 -40 -10 -40 -5 0
-10 -7 -10 -15 0 -18 -44 -65 -60 -65 -20 0 -40 28 -40 54 0 14 5 26 10 26 6
0 10 9 10 20 0 13 -7 20 -20 20 -11 0 -20 5 -20 10 0 6 -13 10 -30 10 -16 0
-30 5 -30 10 0 6 -18 10 -40 10 -22 0 -40 5 -40 10 0 6 -16 10 -36 10 -27 0
-43 -7 -64 -30 -30 -32 -63 -38 -86 -16 -16 17 -19 46 -4 46 6 0 10 14 10 30
0 17 5 30 10 30 6 0 10 8 10 18 0 10 9 24 20 32 11 8 20 22 20 32 0 11 7 18
20 18 16 0 20 7 20 30 0 29 -1 30 -50 30 -43 0 -50 3 -50 20 0 11 5 20 10 20
6 0 10 7 10 16 0 23 25 44 54 44 19 0 26 5 26 20 0 11 -4 20 -10 20 -5 0 -10
13 -10 29 0 16 -6 32 -12 35 -10 5 -10 7 0 12 6 3 12 19 12 35 0 16 5 29 10
29 6 0 10 7 10 15 0 9 20 36 45 60 24 25 51 45 60 45 8 0 15 5 15 10 0 6 14
10 30 10 17 0 30 5 30 10 0 6 14 10 30 10 17 0 30 5 30 10 0 6 27 10 60 10 33
0 60 -4 60 -10z"/>
<path d="M500 930 c0 -16 5 -30 10 -30 6 0 10 -9 10 -20 0 -11 5 -20 10 -20 6
0 10 14 10 30 0 17 -4 30 -10 30 -5 0 -10 9 -10 20 0 11 -4 20 -10 20 -5 0
-10 -13 -10 -30z"/>
<path d="M600 860 c0 -16 7 -20 30 -20 23 0 30 -4 30 -20 0 -16 7 -20 30 -20
23 0 30 -4 30 -20 0 -11 -4 -20 -10 -20 -5 0 -10 5 -10 10 0 19 -53 10 -72
-12 -16 -19 -21 -20 -28 -8 -5 8 -12 11 -16 8 -10 -11 43 -58 66 -58 24 0 90
62 90 85 0 8 5 15 10 15 6 0 10 5 10 10 0 6 -18 10 -40 10 -33 0 -40 3 -40 20
0 16 -7 20 -30 20 -16 0 -30 5 -30 10 0 6 -4 10 -10 10 -5 0 -10 -9 -10 -20z"/>
<path d="M813 805 c-18 -20 -16 -25 7 -25 11 0 20 5 20 10 0 6 14 10 30 10 17
0 30 5 30 10 0 15 -73 11 -87 -5z"/>
<path d="M780 754 c0 -10 28 -34 40 -34 6 0 18 -6 26 -14 28 -28 5 -66 -40
-66 -14 0 -26 5 -26 10 0 6 -9 10 -20 10 -11 0 -20 -4 -20 -10 0 -5 9 -10 20
-10 11 0 20 -4 20 -10 0 -5 11 -10 25 -10 26 0 75 39 75 60 0 16 -47 60 -65
60 -8 0 -15 5 -15 10 0 6 -4 10 -10 10 -5 0 -10 -3 -10 -6z"/>
</g>
</svg>
